<svg width="0" height="0" class="hidden">
  <symbol fill="none" xmlns="http://www.w3.org/2000/svg" viewBox="0 0 8 14" id="arrow-left">
    <path d="M7 13L1 7L7 1" stroke="currentColor" stroke-width="1.5" stroke-linecap="round" stroke-linejoin="round"></path>
  </symbol>
  <symbol fill="none" xmlns="http://www.w3.org/2000/svg" viewBox="0 0 8 14" id="arrow-right">
    <path d="M1 13L7 7L1 1" stroke="currentColor" stroke-width="1.5" stroke-linecap="round" stroke-linejoin="round"></path>
  </symbol>
  <symbol fill="none" xmlns="http://www.w3.org/2000/svg" viewBox="0 0 13 13" id="calendar">
    <path d="M5.23656 5.16263V9.49649H4.68812V5.75088H4.67838C4.44356 5.87843 3.96094 6.17339 3.65625 6.38217V5.81748C3.9979 5.57766 4.3539 5.35896 4.72225 5.16263H5.23656Z" fill="currentColor"></path>
    <path fill-rule="evenodd" clip-rule="evenodd" d="M7.5855 9.57856C6.68444 9.57856 6.24 8.9562 6.20182 8.43618H6.75756C6.79169 8.7368 7.07119 9.10244 7.61068 9.10244C8.29644 9.10244 8.66775 8.41342 8.671 7.34419H8.64907C8.52475 7.68056 8.1315 7.98605 7.52538 7.98605C6.83313 7.98605 6.16362 7.49043 6.16362 6.54795C6.16362 5.62412 6.87131 5.07812 7.62369 5.07812C8.57594 5.07812 9.2105 5.67451 9.2105 7.2459C9.2105 8.71246 8.60763 9.57856 7.5855 9.57856ZM7.63913 7.51235C8.14694 7.51235 8.60112 7.11914 8.60112 6.55361C8.60112 5.87763 8.17294 5.55425 7.65863 5.55425C7.1825 5.55425 6.70963 5.86871 6.70963 6.53739C6.70963 7.20117 7.15081 7.51235 7.63913 7.51235Z" fill="currentColor"></path>
    <path fill-rule="evenodd" clip-rule="evenodd" d="M3.13101 0.118969C3.05483 0.0427971 2.95149 0 2.84375 0C2.73601 0 2.63267 0.0427971 2.55649 0.118969C2.4803 0.19519 2.4375 0.298489 2.4375 0.40625V0.8125H1.625C1.19402 0.8125 0.7807 0.983688 0.47595 1.28848C0.171207 1.59321 0 2.0065 0 2.4375V11.375C0 11.806 0.171207 12.2193 0.47595 12.524C0.7807 12.8288 1.19402 13 1.625 13H11.375C11.806 13 12.2193 12.8288 12.524 12.524C12.8288 12.2193 13 11.806 13 11.375V2.4375C13 2.0065 12.8288 1.59321 12.524 1.28848C12.2193 0.983688 11.806 0.8125 11.375 0.8125H10.5625V0.40625C10.5625 0.298489 10.5197 0.19519 10.4435 0.118969C10.3673 0.0427971 10.264 0 10.1562 0C10.0485 0 9.94517 0.0427971 9.86899 0.118969C9.7928 0.19519 9.75 0.298489 9.75 0.40625V0.8125H3.25V0.40625C3.25 0.298489 3.2072 0.19519 3.13101 0.118969ZM0.8125 11.375V3.25H12.1875V11.375C12.1875 11.5905 12.1019 11.7972 11.9495 11.9495C11.7971 12.1019 11.5905 12.1875 11.375 12.1875H1.625C1.40951 12.1875 1.20285 12.1019 1.05048 11.9495C0.8981 11.7972 0.8125 11.5905 0.8125 11.375Z" fill="currentColor"></path>
  </symbol>
  <symbol fill="none" xmlns="http://www.w3.org/2000/svg" viewBox="0 0 32 32" id="facebook">
    <circle cx="16" cy="16" r="15.5" stroke="currentColor"></circle>
    <path d="M16.8946 22V16.7982H18.6636L18.9284 14.576H16.8945V13.1573C16.8945 12.514 17.0597 12.0755 17.9124 12.0755L19 12.075V10.0876C18.8119 10.0605 18.1662 10 17.4152 10C15.8471 10 14.7735 11.0355 14.7735 12.9373V14.576H13V16.7982H14.7735V21.9999L16.8946 22Z" fill="currentColor"></path>
  </symbol>
  <symbol fill="none" xmlns="http://www.w3.org/2000/svg" viewBox="0 0 32 32" id="instagram">
    <circle cx="16" cy="16" r="15.5" stroke="currentColor"></circle>
    <path fill-rule="evenodd" clip-rule="evenodd" d="M12.07 10.315C12.4512 10.1667 12.8877 10.0654 13.5265 10.0363C14.1666 10.0068 14.3712 10 16.0007 10C17.6302 10 17.8347 10.0072 18.4745 10.0363C19.1128 10.0649 19.549 10.1667 19.9309 10.315C20.325 10.4682 20.6599 10.6732 20.9933 11.0071C21.3268 11.341 21.5319 11.6754 21.6855 12.07C21.8338 12.4511 21.9351 12.8875 21.9641 13.5263C21.9932 14.1661 22 14.3706 22 16C22 17.6294 21.9932 17.8335 21.9641 18.4737C21.9355 19.1124 21.8338 19.5487 21.6855 19.9301C21.5319 20.3245 21.3273 20.6595 20.9933 20.9929C20.6594 21.3263 20.325 21.5314 19.9305 21.685C19.549 21.8333 19.1128 21.9346 18.474 21.9637C17.8343 21.9932 17.6297 22 16.0003 22C14.3708 22 14.1666 21.9927 13.5265 21.9637C12.8877 21.9346 12.4519 21.8333 12.07 21.685C11.6753 21.5314 11.341 21.3262 11.0071 20.9929C10.6732 20.6597 10.4682 20.3245 10.315 19.9301C10.1667 19.5487 10.0654 19.1125 10.0363 18.4737C10.0068 17.8339 10 17.6294 10 16C10 14.3706 10.0068 14.1661 10.0363 13.5263C10.0654 12.8876 10.1667 12.4514 10.315 12.07C10.4682 11.6752 10.6732 11.3405 11.0071 11.0071C11.3411 10.6737 11.6753 10.4682 12.07 10.315ZM15.9997 14C14.8953 14 14 14.8955 14 16C14 17.1045 14.8953 18 15.9997 18C17.1043 18 18 17.1043 18 16C18 14.8957 17.1043 14 15.9997 14ZM12.6667 16C12.6667 14.1594 14.1586 12.6667 15.9997 12.6667C17.8405 12.6667 19.3333 14.1591 19.3333 16C19.3333 17.8409 17.8405 19.3333 15.9997 19.3333C14.1586 19.3333 12.6667 17.8407 12.6667 16ZM20 12.6667C20.3682 12.6667 20.6667 12.3682 20.6667 12C20.6667 11.6318 20.3682 11.3333 20 11.3333C19.6318 11.3333 19.3333 11.6318 19.3333 12C19.3333 12.3682 19.6318 12.6667 20 12.6667Z" fill="currentColor"></path>
  </symbol>
  <symbol fill="none" xmlns="http://www.w3.org/2000/svg" viewBox="0 0 9 13" id="location">
    <path d="M9 4.55C9 3.95249 8.8836 3.36082 8.65746 2.80879C8.43131 2.25676 8.09984 1.75517 7.68198 1.33266C7.26412 0.910158 6.76804 0.575007 6.22208 0.346348C5.67611 0.117689 5.09095 0 4.5 0C3.90905 0 3.32389 0.117689 2.77792 0.346348C2.23196 0.575007 1.73588 0.910158 1.31802 1.33266C0.900156 1.75517 0.568688 2.25676 0.342542 2.80879C0.116396 3.36082 -8.80582e-09 3.95249 0 4.55C0 5.45155 0.263571 6.29005 0.710357 6.99725H0.705214C2.22236 9.399 4.5 13 4.5 13L8.29479 6.99725H8.29029C8.75341 6.26689 8.99971 5.41758 9 4.55ZM4.5 6.5C3.98851 6.5 3.49797 6.29455 3.13629 5.92886C2.77462 5.56316 2.57143 5.06717 2.57143 4.55C2.57143 4.03283 2.77462 3.53684 3.13629 3.17114C3.49797 2.80545 3.98851 2.6 4.5 2.6C5.01149 2.6 5.50203 2.80545 5.86371 3.17114C6.22538 3.53684 6.42857 4.03283 6.42857 4.55C6.42857 5.06717 6.22538 5.56316 5.86371 5.92886C5.50203 6.29455 5.01149 6.5 4.5 6.5Z" fill="currentColor"></path>
  </symbol>
  <symbol fill="none" xmlns="http://www.w3.org/2000/svg" viewBox="0 0 28 28" id="magnifying-glass">
    <path d="M12.692 21.8391C17.7428 21.8391 21.8372 17.7447 21.8372 12.6939C21.8372 7.6432 17.7428 3.54877 12.692 3.54877C7.6413 3.54877 3.54688 7.6432 3.54688 12.6939C3.54688 17.7447 7.6413 21.8391 12.692 21.8391Z" stroke="currentColor" stroke-width="2" stroke-linecap="round" stroke-linejoin="round"></path>
    <path d="M19.1592 19.1609L24.4504 24.452" stroke="currentColor" stroke-width="2" stroke-linecap="round" stroke-linejoin="round"></path>
  </symbol>
  <symbol fill="none" xmlns="http://www.w3.org/2000/svg" viewBox="0 0 58 58" id="mob">
    <g filter="url(#filter0_d_2_179)">
      <rect x="14" y="7" width="30" height="30" rx="6" fill="url(#paint0_linear_2_179)" shape-rendering="crispEdges"></rect>
    </g>
    <path d="M29.0002 17.9094C28.3409 17.923 27.7084 18.173 27.218 18.6139C26.7276 19.0548 26.412 19.6572 26.3287 20.3113C26.2454 20.9655 26.3999 21.6278 26.764 22.1776C27.1282 22.7273 27.6778 23.1279 28.3127 23.3063V30.9719C28.3127 31.1543 28.3851 31.3291 28.514 31.4581C28.643 31.587 28.8178 31.6594 29.0002 31.6594C29.1825 31.6594 29.3574 31.587 29.4863 31.4581C29.6152 31.3291 29.6877 31.1543 29.6877 30.9719V23.3063C30.3225 23.1279 30.8721 22.7273 31.2363 22.1776C31.6005 21.6278 31.755 20.9655 31.6717 20.3113C31.5883 19.6572 31.2727 19.0548 30.7823 18.6139C30.292 18.173 29.6595 17.923 29.0002 17.9094Z" fill="currentColor"></path>
    <path d="M33.9498 14.9532C33.8106 14.8596 33.6419 14.8203 33.4756 14.8425C33.3093 14.8647 33.1569 14.9469 33.047 15.0737C32.9372 15.2004 32.8774 15.363 32.8791 15.5307C32.8808 15.6985 32.9437 15.8598 33.0561 15.9844C33.726 16.5652 34.2633 17.2833 34.6315 18.0899C34.9997 18.8964 35.1902 19.7727 35.1902 20.6594C35.1902 21.5461 34.9997 22.4224 34.6315 23.229C34.2633 24.0355 33.726 24.7536 33.0561 25.3344C32.9752 25.3887 32.9068 25.4595 32.8554 25.5423C32.804 25.625 32.7707 25.7177 32.7579 25.8142C32.745 25.9108 32.7527 26.0089 32.7807 26.1022C32.8086 26.1955 32.856 26.2818 32.9198 26.3554C32.9836 26.429 33.0623 26.4882 33.1507 26.5291C33.239 26.57 33.3351 26.5917 33.4325 26.5926C33.5299 26.5936 33.6264 26.5739 33.7156 26.5347C33.8047 26.4956 33.8846 26.438 33.9498 26.3657C34.766 25.6558 35.4205 24.7791 35.8689 23.7947C36.3174 22.8103 36.5494 21.7411 36.5494 20.6594C36.5494 19.5777 36.3174 18.5085 35.8689 17.5241C35.4205 16.5398 34.766 15.663 33.9498 14.9532ZM22.8123 20.6594C22.812 19.773 23.0021 18.8968 23.3698 18.0902C23.7375 17.2837 24.2742 16.5655 24.9436 15.9844C25.0559 15.8598 25.1189 15.6985 25.1205 15.5307C25.1222 15.363 25.0625 15.2004 24.9526 15.0737C24.8427 14.9469 24.6903 14.8647 24.524 14.8425C24.3578 14.8203 24.1891 14.8596 24.0498 14.9532C23.2336 15.663 22.5792 16.5398 22.1307 17.5241C21.6823 18.5085 21.4502 19.5777 21.4502 20.6594C21.4502 21.7411 21.6823 22.8103 22.1307 23.7947C22.5792 24.7791 23.2336 25.6558 24.0498 26.3657C24.1891 26.4592 24.3578 26.4985 24.524 26.4763C24.6903 26.4541 24.8427 26.3719 24.9526 26.2452C25.0625 26.1184 25.1222 25.9558 25.1205 25.7881C25.1189 25.6203 25.0559 25.459 24.9436 25.3344C24.2742 24.7533 23.7375 24.0351 23.3698 23.2286C23.0021 22.422 22.812 21.5458 22.8123 20.6594Z" fill="currentColor"></path>
    <path d="M36.3908 12.5126C36.3231 12.4516 36.244 12.4046 36.1581 12.3742C36.0722 12.3438 35.9812 12.3306 35.8902 12.3354C35.7993 12.3402 35.7101 12.3629 35.6279 12.4021C35.5457 12.4414 35.472 12.4964 35.4111 12.5641C35.3501 12.6318 35.3031 12.7109 35.2727 12.7968C35.2424 12.8826 35.2292 12.9737 35.234 13.0646C35.2388 13.1556 35.2614 13.2447 35.3006 13.327C35.3399 13.4092 35.3949 13.4829 35.4626 13.5438C36.4529 14.4458 37.244 15.5446 37.7853 16.7699C38.3266 17.9951 38.6062 19.3199 38.6062 20.6594C38.6062 21.9989 38.3266 23.3237 37.7853 24.549C37.244 25.7742 36.4529 26.873 35.4626 27.7751C35.3949 27.836 35.3399 27.9097 35.3006 27.9919C35.2614 28.0741 35.2388 28.1632 35.234 28.2542C35.2292 28.3452 35.2424 28.4362 35.2727 28.5221C35.3031 28.608 35.3501 28.687 35.4111 28.7547C35.472 28.8225 35.5457 28.8775 35.6279 28.9167C35.7101 28.956 35.7993 28.9786 35.8902 28.9834C35.9812 28.9882 36.0722 28.975 36.1581 28.9446C36.244 28.9143 36.3231 28.8672 36.3908 28.8063C37.5217 27.7755 38.4252 26.52 39.0433 25.1201C39.6615 23.7203 39.9808 22.2069 39.9808 20.6766C39.9808 19.1464 39.6615 17.6329 39.0433 16.2331C38.4252 14.8332 37.5217 13.5778 36.3908 12.5469V12.5126ZM19.3752 20.6594C19.3797 19.3188 19.6632 17.9939 20.2076 16.7688C20.7521 15.5438 21.5456 14.4455 22.5376 13.5438C22.6744 13.4207 22.7567 13.2484 22.7663 13.0646C22.776 12.8809 22.7123 12.7009 22.5892 12.5641C22.4661 12.4274 22.2938 12.3451 22.11 12.3354C21.9263 12.3258 21.7463 12.3895 21.6095 12.5126C20.4786 13.5434 19.5751 14.7989 18.957 16.1987C18.3388 17.5986 18.0195 19.112 18.0195 20.6422C18.0195 22.1725 18.3388 23.6859 18.957 25.0858C19.5751 26.4856 20.4786 27.7411 21.6095 28.7719C21.6772 28.8329 21.7563 28.8799 21.8422 28.9103C21.9281 28.9407 22.0191 28.9538 22.11 28.949C22.201 28.9443 22.2902 28.9216 22.3724 28.8824C22.4546 28.8431 22.5283 28.7881 22.5892 28.7204C22.6502 28.6527 22.6972 28.5736 22.7276 28.4877C22.7579 28.4018 22.7711 28.3108 22.7663 28.2198C22.7615 28.1289 22.7389 28.0397 22.6996 27.9575C22.6604 27.8753 22.6054 27.8016 22.5376 27.7407C21.5498 26.8429 20.7588 25.7502 20.2145 24.5314C19.6702 23.3126 19.3844 21.9942 19.3752 20.6594Z" fill="currentColor"></path>
    <defs>
      <filter id="filter0_d_2_179" x="0" y="0" width="58" height="58" filterUnits="userSpaceOnUse" color-interpolation-filters="sRGB">
        <feFlood flood-opacity="0" result="BackgroundImageFix"></feFlood>
        <feColorMatrix in="SourceAlpha" type="matrix" values="0 0 0 0 0 0 0 0 0 0 0 0 0 0 0 0 0 0 127 0" result="hardAlpha"></feColorMatrix>
        <feMorphology radius="5" operator="erode" in="SourceAlpha" result="effect1_dropShadow_2_179"></feMorphology>
        <feOffset dy="7"></feOffset>
        <feGaussianBlur stdDeviation="9.5"></feGaussianBlur>
        <feComposite in2="hardAlpha" operator="out"></feComposite>
        <feColorMatrix type="matrix" values="0 0 0 0 0.570718 0 0 0 0 0.389126 0 0 0 0 0 0 0 0 0.11 0"></feColorMatrix>
        <feBlend mode="normal" in2="BackgroundImageFix" result="effect1_dropShadow_2_179"></feBlend>
        <feBlend mode="normal" in="SourceGraphic" in2="effect1_dropShadow_2_179" result="shape"></feBlend>
      </filter>
      <linearGradient id="paint0_linear_2_179" x1="29" y1="7" x2="45" y2="73" gradientUnits="userSpaceOnUse">
        <stop stop-color="currentColor"></stop>
        <stop offset="1" stop-color="currentColor" stop-opacity="0"></stop>
      </linearGradient>
    </defs>
  </symbol>
  <symbol fill="none" xmlns="http://www.w3.org/2000/svg" viewBox="0 0 16 15" id="plane">
    <path d="M0 8.45744L4.04598 10.2128L13.4253 2.87235L6.06897 11.1702V15L8.82758 11.9681L13.4253 13.5638L16 0L0 8.45744Z" fill="currentColor"></path>
  </symbol>
  <symbol fill="none" xmlns="http://www.w3.org/2000/svg" viewBox="0 0 108 17" id="stars">
    <path d="M40.6654 6.40648C40.5825 6.15855 40.4228 5.94022 40.2072 5.78011C39.9915 5.62 39.73 5.52559 39.457 5.50926L34.5403 5.18657L32.7193 0.818518C32.6199 0.578003 32.4468 0.371406 32.2225 0.225473C31.9982 0.0795413 31.733 0.000993936 31.4612 0C31.1894 0.000993936 30.9242 0.0795413 30.6999 0.225473C30.4756 0.371406 30.3025 0.578003 30.2031 0.818518L28.349 5.21018L23.4655 5.50926C23.1927 5.52665 22.9318 5.62145 22.7163 5.78141C22.5009 5.94137 22.3409 6.15911 22.257 6.40648C22.1709 6.65764 22.1658 6.92758 22.2425 7.18149C22.3193 7.43539 22.4742 7.66163 22.6874 7.83102L26.4452 10.8532L25.3278 15.0324C25.2505 15.3151 25.2644 15.6134 25.3677 15.8885C25.4711 16.1636 25.659 16.4028 25.9072 16.575C26.1481 16.7394 26.4351 16.8317 26.7315 16.8401C27.0279 16.8485 27.3202 16.7727 27.5709 16.6222L31.4529 14.2847H31.4695L35.6495 16.7954C35.8639 16.9279 36.1139 16.9989 36.3696 17C36.5784 16.9984 36.784 16.9514 36.9707 16.8624C37.1573 16.7735 37.3201 16.645 37.4464 16.4869C37.5727 16.3288 37.6592 16.1453 37.6992 15.9505C37.7393 15.7556 37.7318 15.5546 37.6774 15.363L36.4937 10.7903L40.235 7.83102C40.4482 7.66163 40.6032 7.43539 40.6799 7.18149C40.7566 6.92758 40.7516 6.65764 40.6654 6.40648Z" fill="currentColor"></path>
    <path d="M85.0425 6.40648C84.9596 6.15855 84.7999 5.94022 84.5842 5.78011C84.3686 5.62 84.1071 5.52559 83.834 5.50926L78.9174 5.18657L77.0964 0.818518C76.997 0.578003 76.8239 0.371406 76.5996 0.225473C76.3753 0.0795413 76.1101 0.000993936 75.8383 0C75.5665 0.000993936 75.3013 0.0795413 75.077 0.225473C74.8527 0.371406 74.6796 0.578003 74.5801 0.818518L72.7261 5.21018L67.8425 5.50926C67.5698 5.52665 67.3088 5.62145 67.0934 5.78141C66.8779 5.94137 66.7179 6.15911 66.6341 6.40648C66.5479 6.65764 66.5429 6.92758 66.6196 7.18149C66.6963 7.43539 66.8513 7.66163 67.0645 7.83102L70.8223 10.8532L69.7049 15.0324C69.6276 15.3151 69.6415 15.6134 69.7448 15.8885C69.8482 16.1636 70.0361 16.4028 70.2843 16.575C70.5252 16.7394 70.8122 16.8317 71.1086 16.8401C71.405 16.8485 71.6972 16.7727 71.948 16.6222L75.83 14.2847H75.8466L80.0265 16.7954C80.2409 16.9279 80.4909 16.9989 80.7466 17C80.9554 16.9984 81.1611 16.9514 81.3477 16.8624C81.5344 16.7735 81.6972 16.645 81.8235 16.4869C81.9498 16.3288 82.0363 16.1453 82.0763 15.9505C82.1163 15.7556 82.1089 15.5546 82.0544 15.363L80.8708 10.7903L84.6121 7.83102C84.8253 7.66163 84.9802 7.43539 85.0569 7.18149C85.1337 6.92758 85.1286 6.65764 85.0425 6.40648Z" fill="currentColor"></path>
    <path d="M107.231 6.40648C107.148 6.15855 106.988 5.94022 106.773 5.78011C106.557 5.62 106.295 5.52559 106.022 5.50926L101.106 5.18657L99.2848 0.818518C99.1853 0.578003 99.0123 0.371406 98.7879 0.225473C98.5636 0.0795413 98.2984 0.000993936 98.0266 0C97.7548 0.000993936 97.4896 0.0795413 97.2653 0.225473C97.041 0.371406 96.8679 0.578003 96.7685 0.818518L94.9144 5.21018L90.0309 5.50926C89.7582 5.52665 89.4972 5.62145 89.2817 5.78141C89.0663 5.94137 88.9063 6.15911 88.8224 6.40648C88.7363 6.65764 88.7313 6.92758 88.808 7.18149C88.8847 7.43539 89.0396 7.66163 89.2528 7.83102L93.0107 10.8532L91.8932 15.0324C91.8159 15.3151 91.8299 15.6134 91.9332 15.8885C92.0365 16.1636 92.2245 16.4028 92.4727 16.575C92.7135 16.7394 93.0005 16.8317 93.2969 16.8401C93.5933 16.8485 93.8856 16.7727 94.1364 16.6222L98.0184 14.2847H98.0349L102.215 16.7954C102.429 16.9279 102.679 16.9989 102.935 17C103.144 16.9984 103.349 16.9514 103.536 16.8624C103.723 16.7735 103.886 16.645 104.012 16.4869C104.138 16.3288 104.225 16.1453 104.265 15.9505C104.305 15.7556 104.297 15.5546 104.243 15.363L103.059 10.7903L106.8 7.83102C107.014 7.66163 107.169 7.43539 107.245 7.18149C107.322 6.92758 107.317 6.65764 107.231 6.40648Z" fill="currentColor"></path>
    <path d="M18.4769 6.40648C18.3941 6.15855 18.2343 5.94022 18.0187 5.78011C17.803 5.62 17.5415 5.52559 17.2685 5.50926L12.3518 5.18657L10.5309 0.818518C10.4314 0.578003 10.2584 0.371406 10.034 0.225473C9.80973 0.0795413 9.54452 0.000993936 9.27273 0C9.00094 0.000993936 8.73572 0.0795413 8.51142 0.225473C8.28711 0.371406 8.11403 0.578003 8.0146 0.818518L6.16051 5.21018L1.27698 5.50926C1.00425 5.52665 0.743283 5.62145 0.527839 5.78141C0.312394 5.94137 0.152385 6.15911 0.0685104 6.40648C-0.0176213 6.65764 -0.0226537 6.92758 0.0540622 7.18149C0.130778 7.43539 0.285725 7.66163 0.498924 7.83102L4.25676 10.8532L3.13934 15.0324C3.06203 15.3151 3.07594 15.6134 3.17927 15.8885C3.2826 16.1636 3.47057 16.4028 3.71874 16.575C3.95964 16.7394 4.24664 16.8317 4.54302 16.8401C4.8394 16.8485 5.13168 16.7727 5.38246 16.6222L9.26445 14.2847H9.28101L13.461 16.7954C13.6754 16.9279 13.9254 16.9989 14.1811 17C14.3899 16.9984 14.5955 16.9514 14.7822 16.8624C14.9689 16.7735 15.1316 16.645 15.2579 16.4869C15.3842 16.3288 15.4707 16.1453 15.5107 15.9505C15.5508 15.7556 15.5433 15.5546 15.4889 15.363L14.3053 10.7903L18.0465 7.83102C18.2597 7.66163 18.4147 7.43539 18.4914 7.18149C18.5681 6.92758 18.5631 6.65764 18.4769 6.40648Z" fill="currentColor"></path>
    <path d="M62.854 6.40648C62.7711 6.15855 62.6114 5.94022 62.3957 5.78011C62.1801 5.62 61.9186 5.52559 61.6455 5.50926L56.7289 5.18657L54.9079 0.818518C54.8084 0.578003 54.6354 0.371406 54.4111 0.225473C54.1867 0.0795413 53.9215 0.000993936 53.6497 0C53.378 0.000993936 53.1127 0.0795413 52.8884 0.225473C52.6641 0.371406 52.491 0.578003 52.3916 0.818518L50.5375 5.21018L45.654 5.50926C45.3813 5.52665 45.1203 5.62145 44.9049 5.78141C44.6894 5.94137 44.5294 6.15911 44.4455 6.40648C44.3594 6.65764 44.3544 6.92758 44.4311 7.18149C44.5078 7.43539 44.6627 7.66163 44.8759 7.83102L48.6338 10.8532L47.5164 15.0324C47.439 15.3151 47.453 15.6134 47.5563 15.8885C47.6596 16.1636 47.8476 16.4028 48.0958 16.575C48.3367 16.7394 48.6237 16.8317 48.92 16.8401C49.2164 16.8485 49.5087 16.7727 49.7595 16.6222L53.6415 14.2847H53.658L57.838 16.7954C58.0524 16.9279 58.3024 16.9989 58.5581 17C58.7669 16.9984 58.9725 16.9514 59.1592 16.8624C59.3459 16.7735 59.5086 16.645 59.6349 16.4869C59.7612 16.3288 59.8477 16.1453 59.8878 15.9505C59.9278 15.7556 59.9203 15.5546 59.8659 15.363L58.6823 10.7903L62.4235 7.83102C62.6367 7.66163 62.7917 7.43539 62.8684 7.18149C62.9451 6.92758 62.9401 6.65764 62.854 6.40648Z" fill="currentColor"></path>
  </symbol>
  <symbol fill="none" xmlns="http://www.w3.org/2000/svg" viewBox="0 0 32 32" id="x">
    <circle cx="16" cy="16" r="15.5" stroke="currentColor"></circle>
    <path d="M19.0226 10.0027V10H19.7259L19.9829 10.0506C20.1542 10.0835 20.3098 10.1265 20.4495 10.1798C20.5893 10.2331 20.7245 10.2952 20.8552 10.3663C20.986 10.4373 21.1046 10.5097 21.2111 10.5834C21.3165 10.6562 21.4112 10.7334 21.4951 10.8151C21.578 10.8977 21.7074 10.919 21.8832 10.879C22.0591 10.8391 22.2485 10.7836 22.4513 10.7125C22.6542 10.6415 22.8548 10.5616 23.0532 10.4728C23.2516 10.384 23.3724 10.3276 23.4157 10.3037C23.458 10.2788 23.4806 10.2655 23.4833 10.2637L23.486 10.2597L23.4995 10.253L23.5131 10.2464L23.5266 10.2397L23.5401 10.2331L23.5428 10.2291L23.5469 10.2264L23.551 10.2238L23.5537 10.2198L23.5672 10.2158L23.5807 10.2131L23.578 10.2331L23.5739 10.253L23.5672 10.273L23.5604 10.293L23.5537 10.3063L23.5469 10.3196L23.5401 10.3396C23.5356 10.3529 23.5311 10.3707 23.5266 10.3929C23.5221 10.4151 23.4793 10.5039 23.3981 10.6593C23.317 10.8147 23.2155 10.9723 23.0938 11.1321C22.9721 11.2919 22.8629 11.4126 22.7665 11.4943C22.6691 11.5769 22.6046 11.6346 22.5731 11.6675C22.5415 11.7012 22.5031 11.7323 22.4581 11.7607L22.3904 11.8047L22.3769 11.8113L22.3634 11.818L22.3607 11.822L22.3566 11.8246L22.3526 11.8273L22.3499 11.8313L22.3363 11.838L22.3228 11.8446L22.3202 11.8486L22.316 11.8513L22.312 11.8539L22.3093 11.8579L22.3066 11.8619L22.3025 11.8646L22.2985 11.8673L22.2958 11.8713H22.3634L22.7421 11.7913C22.9946 11.7381 23.2358 11.6737 23.4657 11.5982L23.8309 11.4784L23.8715 11.465L23.8918 11.4584L23.9053 11.4517L23.9188 11.4451L23.9324 11.4384L23.9459 11.4317L23.9729 11.4277L24 11.4251V11.4517L23.9932 11.4544L23.9865 11.4584L23.9838 11.4624L23.9797 11.465L23.9756 11.4677L23.9729 11.4717L23.9702 11.4757L23.9662 11.4784L23.9621 11.481L23.9594 11.485L23.9567 11.489L23.9527 11.4917L23.9459 11.505L23.9391 11.5183L23.9351 11.521C23.9333 11.5236 23.876 11.5991 23.7633 11.7474C23.6506 11.8966 23.5898 11.972 23.5807 11.9738C23.5717 11.9765 23.5591 11.9898 23.5428 12.0138C23.5275 12.0386 23.432 12.1376 23.2561 12.3108C23.0803 12.4839 22.9081 12.638 22.7394 12.7729C22.5699 12.9088 22.4843 13.0757 22.4825 13.2737C22.4798 13.4708 22.4693 13.6937 22.4513 13.9423C22.4333 14.1909 22.3995 14.4595 22.3499 14.748C22.3003 15.0366 22.2236 15.3629 22.1199 15.727C22.0163 16.091 21.89 16.4462 21.7412 16.7924C21.5924 17.1387 21.4369 17.4495 21.2746 17.7248C21.1123 18 20.9635 18.2331 20.8282 18.424C20.693 18.6149 20.5555 18.7947 20.4157 18.9634C20.2759 19.1321 20.0992 19.3221 19.8855 19.5334C19.6708 19.7439 19.5537 19.8593 19.5338 19.8797C19.5131 19.8992 19.4247 19.9721 19.2687 20.0981C19.1136 20.225 18.9468 20.352 18.7682 20.479C18.5906 20.6051 18.4274 20.7103 18.2786 20.7947C18.1298 20.8791 17.9504 20.9754 17.7403 21.0837C17.5311 21.1929 17.3047 21.2941 17.0613 21.3873C16.8178 21.4805 16.5609 21.5672 16.2904 21.647C16.0198 21.727 15.7583 21.7891 15.5059 21.8335C15.2534 21.8779 14.9671 21.9156 14.647 21.9468L14.1668 21.9933V22H13.2876V21.9933L13.1727 21.9867C13.096 21.9822 13.0329 21.9778 12.9833 21.9734C12.9337 21.969 12.7466 21.9445 12.422 21.9001C12.0974 21.8557 11.8427 21.8113 11.6578 21.7669C11.473 21.7225 11.1979 21.6382 10.8327 21.5139C10.4675 21.3896 10.1551 21.264 9.8954 21.137C9.63662 21.0109 9.47431 20.931 9.40847 20.8972C9.34355 20.8644 9.27052 20.8236 9.18936 20.7747L9.06763 20.7015L9.06494 20.6975L9.06086 20.6948L9.05681 20.6922L9.0541 20.6881L9.04058 20.6815L9.02705 20.6748L9.02436 20.6708L9.02029 20.6681L9.01623 20.6655L9.01352 20.6615L9.01084 20.6575L9.00677 20.6548H9V20.6282L9.01352 20.6309L9.02705 20.6348L9.08791 20.6415C9.1285 20.6459 9.23896 20.6526 9.4193 20.6615C9.59965 20.6704 9.79125 20.6704 9.99414 20.6615C10.197 20.6526 10.4044 20.6326 10.6163 20.6016C10.8282 20.5705 11.0785 20.5172 11.367 20.4417C11.6556 20.3663 11.9207 20.2766 12.1623 20.1727C12.4031 20.0679 12.5744 19.9898 12.6763 19.9383C12.7773 19.8877 12.9315 19.7936 13.1389 19.6559L13.45 19.4495L13.4527 19.4455L13.4567 19.4429L13.4608 19.4402L13.4635 19.4362L13.4662 19.4321L13.4702 19.4295L13.4743 19.4268L13.477 19.4229L13.4905 19.4189L13.5041 19.4162L13.5068 19.4029L13.5108 19.3895L13.5149 19.3869L13.5176 19.3829L13.4094 19.3763C13.3372 19.3719 13.2674 19.3673 13.1997 19.3629C13.1321 19.3585 13.0262 19.3385 12.8819 19.303C12.7376 19.2674 12.5821 19.2142 12.4152 19.1432C12.2484 19.0722 12.0861 18.9878 11.9283 18.8901C11.7705 18.7925 11.6564 18.7112 11.5861 18.6464C11.5167 18.5825 11.4265 18.4919 11.3156 18.3747C11.2056 18.2566 11.11 18.1354 11.0289 18.0111C10.9477 17.8868 10.8702 17.7434 10.7962 17.5809L10.684 17.3385L10.6772 17.3185L10.6704 17.2985L10.6664 17.2853L10.6637 17.2719L10.684 17.2745L10.7042 17.2786L10.853 17.2985C10.9522 17.3119 11.1078 17.3163 11.3197 17.3119C11.5316 17.3075 11.6781 17.2986 11.7592 17.2853C11.8404 17.2719 11.89 17.263 11.908 17.2586L11.9351 17.252L11.9689 17.2453L12.0027 17.2386L12.0054 17.2347L12.0095 17.2319L12.0135 17.2293L12.0162 17.2253L11.9892 17.2187L11.9621 17.212L11.9351 17.2053L11.908 17.1986L11.881 17.192C11.8629 17.1876 11.8314 17.1787 11.7863 17.1653C11.7412 17.1521 11.6195 17.1032 11.4211 17.0189C11.2227 16.9345 11.0649 16.8524 10.9477 16.7725C10.8302 16.6923 10.7181 16.6047 10.6123 16.5101C10.5068 16.4142 10.3909 16.2908 10.2646 16.1399C10.1384 15.9889 10.0257 15.8135 9.92651 15.6137C9.82732 15.4139 9.75293 15.2231 9.70333 15.041C9.65394 14.8601 9.62135 14.6751 9.60596 14.4883L9.5816 14.2087L9.59513 14.2113L9.60865 14.2153L9.62219 14.222L9.63571 14.2286L9.64923 14.2353L9.66276 14.242L9.87241 14.3352C10.0122 14.3973 10.1858 14.4506 10.3931 14.495C10.6006 14.5394 10.7245 14.5638 10.7651 14.5682L10.826 14.5749H10.9477L10.945 14.5709L10.9409 14.5682L10.9369 14.5656L10.9342 14.5616L10.9315 14.5576L10.9274 14.555L10.9234 14.5523L10.9207 14.5483L10.9071 14.5416L10.8936 14.535L10.8909 14.531L10.8868 14.5283L10.8828 14.5257L10.8801 14.5217L10.8665 14.515L10.853 14.5083L10.8503 14.5044C10.8476 14.5026 10.8088 14.4741 10.734 14.4191C10.66 14.3632 10.5825 14.2908 10.5014 14.202C10.4202 14.1132 10.339 14.02 10.2579 13.9223C10.1766 13.8244 10.1042 13.7197 10.0415 13.6093C9.97837 13.4983 9.91163 13.3572 9.8413 13.1858C9.77187 13.0153 9.71912 12.8435 9.68305 12.6704C9.64699 12.4972 9.6267 12.3263 9.62219 12.1576C9.61768 11.9889 9.62218 11.8446 9.63571 11.7248C9.64923 11.6049 9.67628 11.4695 9.71687 11.3185C9.75744 11.1676 9.81606 11.0078 9.89269 10.8391L10.0077 10.586L10.0144 10.566L10.0212 10.5461L10.0253 10.5434L10.028 10.5394L10.0307 10.5354L10.0347 10.5327L10.0388 10.5354L10.0415 10.5394L10.0442 10.5434L10.0482 10.5461L10.0523 10.5487L10.055 10.5527L10.0577 10.5567L10.0618 10.5594L10.0685 10.5727L10.0753 10.586L10.0794 10.5887L10.0821 10.5927L10.2646 10.7925C10.3864 10.9256 10.5307 11.0744 10.6975 11.2386C10.8643 11.4029 10.9567 11.4881 10.9747 11.4943C10.9928 11.5014 11.0153 11.5219 11.0424 11.5556C11.0694 11.5885 11.1596 11.667 11.3129 11.7913C11.4662 11.9156 11.6668 12.0599 11.9148 12.2242C12.1628 12.3884 12.4378 12.5505 12.7399 12.7103C13.0419 12.8701 13.3666 13.0144 13.7137 13.1432C14.0609 13.2719 14.3043 13.3563 14.4441 13.3962C14.5839 13.4362 14.8228 13.4872 15.1609 13.5494C15.4991 13.6116 15.7538 13.6515 15.9251 13.6693C16.0965 13.687 16.2137 13.6972 16.2768 13.6999L16.3715 13.7026L16.3688 13.6826L16.3648 13.6626L16.3377 13.4961C16.3196 13.3851 16.3106 13.2297 16.3106 13.03C16.3106 12.8302 16.3265 12.646 16.358 12.4773C16.3895 12.3085 16.4369 12.1376 16.5 11.9645C16.5631 11.7913 16.6249 11.6524 16.6853 11.5476C16.7466 11.4437 16.8268 11.3252 16.9261 11.192C17.0252 11.0588 17.1538 10.9212 17.3116 10.7791C17.4694 10.6371 17.6497 10.5105 17.8526 10.3996C18.0554 10.2886 18.2425 10.2042 18.4138 10.1465C18.5852 10.0888 18.7295 10.0511 18.8467 10.0333C18.9639 10.0155 19.0226 10.0053 19.0226 10.0027Z" fill="currentColor"></path>
  </symbol>
</svg>